<svg width="500" height="500" viewBox="0 0 500 500" fill="none" xmlns="http://www.w3.org/2000/svg">
<path d="M271.76 282.36V256.31C271.754 256.027 271.823 255.748 271.96 255.5C272.097 255.253 272.296 255.045 272.539 254.899C272.781 254.753 273.058 254.674 273.34 254.669C273.623 254.663 273.903 254.733 274.15 254.87L296.69 268C296.941 268.149 297.149 268.36 297.293 268.614C297.437 268.867 297.513 269.154 297.513 269.445C297.513 269.737 297.437 270.023 297.293 270.277C297.149 270.53 296.941 270.741 296.69 270.89L274.15 283.82C273.901 283.958 273.62 284.028 273.335 284.022C273.051 284.016 272.773 283.934 272.53 283.786C272.287 283.638 272.088 283.427 271.952 283.177C271.817 282.926 271.751 282.645 271.76 282.36Z" fill="#E0E0E0"/>
<path d="M313.62 282.85V256.85C313.62 256.56 313.695 256.276 313.839 256.025C313.983 255.773 314.19 255.564 314.44 255.417C314.689 255.271 314.973 255.192 315.262 255.189C315.552 255.186 315.837 255.259 316.09 255.4L339.36 268.53C339.618 268.672 339.834 268.882 339.984 269.136C340.134 269.39 340.213 269.68 340.213 269.975C340.213 270.27 340.134 270.56 339.984 270.814C339.834 271.068 339.618 271.278 339.36 271.42L316.08 284.3C315.828 284.439 315.543 284.51 315.255 284.505C314.967 284.501 314.685 284.422 314.437 284.276C314.189 284.129 313.983 283.921 313.84 283.671C313.697 283.421 313.621 283.138 313.62 282.85Z" fill="#E0E0E0"/>
<path d="M328.25 282.85V256.85C328.25 255.58 329.41 254.78 330.36 255.4L350.23 268.53C350.455 268.697 350.639 268.915 350.765 269.166C350.891 269.417 350.957 269.694 350.957 269.975C350.957 270.256 350.891 270.533 350.765 270.784C350.639 271.035 350.455 271.253 350.23 271.42L330.35 284.3C329.41 284.91 328.25 284.11 328.25 282.85Z" fill="#E0E0E0"/>
<path d="M219.28 256.81V282.81C219.281 283.1 219.206 283.385 219.063 283.637C218.919 283.888 218.711 284.098 218.461 284.244C218.211 284.39 217.926 284.467 217.636 284.468C217.347 284.469 217.061 284.394 216.81 284.25L193.54 271.13C193.281 270.988 193.066 270.778 192.916 270.524C192.766 270.27 192.687 269.98 192.687 269.685C192.687 269.39 192.766 269.1 192.916 268.846C193.066 268.592 193.281 268.383 193.54 268.24L216.81 255.32C217.065 255.174 217.355 255.098 217.649 255.101C217.943 255.105 218.231 255.186 218.483 255.338C218.735 255.49 218.942 255.707 219.082 255.966C219.222 256.225 219.29 256.516 219.28 256.81Z" fill="#E0E0E0"/>
<path d="M204.65 256.81V282.81C204.65 284.08 203.49 284.88 202.54 284.25L182.66 271.13C182.436 270.961 182.255 270.743 182.13 270.492C182.005 270.242 181.94 269.965 181.94 269.685C181.94 269.405 182.005 269.129 182.13 268.878C182.255 268.627 182.436 268.409 182.66 268.24L202.54 255.32C203.49 254.75 204.65 255.54 204.65 256.81Z" fill="#E0E0E0"/>
<path d="M239.86 254.45H238.18C236.611 254.45 235.34 255.722 235.34 257.29V281.38C235.34 282.949 236.611 284.22 238.18 284.22H239.86C241.428 284.22 242.7 282.949 242.7 281.38V257.29C242.7 255.722 241.428 254.45 239.86 254.45Z" fill="#E0E0E0"/>
<path d="M252.86 254.45H251.18C249.611 254.45 248.34 255.722 248.34 257.29V281.38C248.34 282.949 249.611 284.22 251.18 284.22H252.86C254.428 284.22 255.7 282.949 255.7 281.38V257.29C255.7 255.722 254.428 254.45 252.86 254.45Z" fill="#E0E0E0"/>
<path d="M475.14 32.9301H382.25V186.69H475.14V32.9301Z" fill="#E0E0E0"/>
<path d="M472.05 32.9301H379.16V186.69H472.05V32.9301Z" fill="#EBEBEB"/>
<path d="M468.1 36.05H383.12V183.57H468.1V36.05Z" fill="white"/>
<path d="M451.55 55.2201H399.3V164.4H451.55V55.2201Z" fill="#EBEBEB"/>
<path d="M399.3 125.77C399.17 115.57 408.35 105.61 418.44 104.19C423.26 103.51 428.38 104.46 432.88 102.62C440.88 99.33 443.47 88.62 451.55 85.49L451.92 164.4H399.3V125.77Z" fill="#E0E0E0"/>
<path d="M133.81 32.9901H47.87V122.57H133.81V32.9901Z" fill="#E0E0E0"/>
<path d="M127.99 32.9901H42.05V122.57H127.99V32.9901Z" fill="#FAFAFA"/>
<path d="M128 122.6H42V33H128V122.6ZM42.07 122.6H128V33H42.08L42.07 122.6Z" fill="#E0E0E0"/>
<path d="M116.43 45.03H53.6V110.53H116.43V45.03Z" fill="white"/>
<path d="M53.6 111C53.1503 111.655 52.6306 112.258 52.05 112.8C51.05 113.86 49.64 115.29 48.05 116.8C46.46 118.31 45.05 119.74 43.94 120.73C43.3943 121.299 42.7873 121.805 42.13 122.24C42.5626 121.575 43.0804 120.97 43.67 120.44C44.67 119.38 46.08 117.95 47.67 116.44C49.26 114.93 50.67 113.44 51.78 112.5C52.3235 111.928 52.9346 111.424 53.6 111Z" fill="#E0E0E0"/>
<path d="M116.43 110.8C117.089 111.243 117.694 111.764 118.23 112.35C119.29 113.35 120.73 114.77 122.23 116.35C123.73 117.93 125.23 119.35 126.16 120.45C126.735 120.996 127.245 121.607 127.68 122.27C127.021 121.829 126.417 121.312 125.88 120.73C124.82 119.73 123.38 118.31 121.82 116.73C120.26 115.15 118.82 113.73 117.89 112.62C117.331 112.075 116.84 111.464 116.43 110.8Z" fill="#E0E0E0"/>
<path d="M116.26 45.2101C116.703 44.5506 117.224 43.9464 117.81 43.4101C118.81 42.3501 120.22 40.9101 121.81 39.4101C123.4 37.9101 124.81 36.4101 125.92 35.4801C126.464 34.9023 127.075 34.3919 127.74 33.9601C127.297 34.6201 126.777 35.2244 126.19 35.7601C125.19 36.8201 123.78 38.2501 122.19 39.8201C120.6 41.3901 119.19 42.7701 118.08 43.7501C117.535 44.3092 116.924 44.7996 116.26 45.2101Z" fill="#E0E0E0"/>
<path d="M53.43 45.37C52.7706 44.9267 52.1663 44.4064 51.63 43.82C50.57 42.82 49.13 41.4 47.58 39.82C46.03 38.24 44.63 36.82 43.65 35.72C43.0693 35.1819 42.5617 34.5701 42.14 33.9C42.7931 34.3477 43.3935 34.8677 43.93 35.45C44.99 36.45 46.43 37.86 47.99 39.45C49.55 41.04 50.94 42.45 51.92 43.56C52.4961 44.0988 53.0033 44.7067 53.43 45.37Z" fill="#E0E0E0"/>
<path d="M116.26 110.53C116.26 110.53 116.26 110.42 116.26 110.21C116.26 110 116.26 109.69 116.26 109.3C116.26 108.48 116.26 107.3 116.26 105.76C116.26 102.66 116.26 98.1401 116.2 92.4101C116.2 80.9401 116.13 64.6001 116.08 45.0301L116.32 45.2801H53.6699L53.95 45.0001C53.95 69.0001 53.95 91.5301 53.95 110.5L53.7099 110.26L99.08 110.38L111.82 110.44H115.2H116.07H115.23H111.9L99.2099 110.51L53.6899 110.63H53.45V110.39C53.45 91.3901 53.45 68.9301 53.45 44.8901V44.6101H53.74H116.39H116.63V45.0001C116.63 64.6301 116.54 81.0001 116.51 92.5401C116.51 98.2501 116.51 102.74 116.45 105.83C116.45 107.35 116.45 108.51 116.45 109.32C116.45 109.7 116.45 109.99 116.45 110.21C116.45 110.43 116.26 110.53 116.26 110.53Z" fill="#E0E0E0"/>
<path d="M95.5 67.3H74.53V88.27H95.5V67.3Z" fill="#EBEBEB"/>
<path d="M357.66 337.17H185.84V416.41H357.66V337.17Z" fill="#F5F5F5"/>
<path d="M353.58 412.68H189.78V341.34H353.58V412.68ZM190.85 411.61H352.51V342.41H190.85V411.61Z" fill="#E0E0E0"/>
<path d="M399.65 337.17H357.67V416.41H399.65V337.17Z" fill="#E0E0E0"/>
<path d="M190.31 363.42H353C353.058 363.42 353.114 363.397 353.156 363.356C353.197 363.314 353.22 363.258 353.22 363.2C353.22 363.142 353.197 363.086 353.156 363.045C353.114 363.003 353.058 362.98 353 362.98H190.31C190.252 362.98 190.196 363.003 190.154 363.045C190.113 363.086 190.09 363.142 190.09 363.2C190.09 363.258 190.113 363.314 190.154 363.356C190.196 363.397 190.252 363.42 190.31 363.42Z" fill="#E0E0E0"/>
<path d="M272.21 363.2C272.66 356.031 272.68 348.841 272.27 341.67C272.27 341.612 272.247 341.556 272.206 341.514C272.164 341.473 272.108 341.45 272.05 341.45C271.992 341.45 271.936 341.473 271.895 341.514C271.853 341.556 271.83 341.612 271.83 341.67C271.412 348.841 271.428 356.031 271.88 363.2C271.889 363.237 271.91 363.27 271.94 363.293C271.97 363.316 272.007 363.329 272.045 363.329C272.083 363.329 272.12 363.316 272.15 363.293C272.18 363.27 272.201 363.237 272.21 363.2Z" fill="#E0E0E0"/>
<path d="M316 352.44C316 352.879 315.87 353.308 315.626 353.673C315.382 354.038 315.035 354.323 314.63 354.491C314.224 354.659 313.778 354.703 313.347 354.617C312.916 354.532 312.521 354.32 312.21 354.01C311.9 353.699 311.688 353.304 311.603 352.873C311.517 352.442 311.561 351.996 311.729 351.59C311.897 351.185 312.182 350.838 312.547 350.594C312.912 350.35 313.341 350.22 313.78 350.22C314.072 350.219 314.361 350.275 314.631 350.386C314.901 350.497 315.146 350.661 315.353 350.867C315.559 351.074 315.723 351.319 315.834 351.589C315.945 351.859 316.001 352.148 316 352.44Z" fill="#E0E0E0"/>
<path d="M230.61 352.44C230.61 352.879 230.48 353.308 230.236 353.673C229.992 354.038 229.645 354.323 229.24 354.491C228.834 354.659 228.388 354.703 227.957 354.617C227.526 354.532 227.131 354.32 226.82 354.01C226.51 353.699 226.298 353.304 226.213 352.873C226.127 352.442 226.171 351.996 226.339 351.59C226.507 351.185 226.792 350.838 227.157 350.594C227.522 350.35 227.951 350.22 228.39 350.22C228.682 350.219 228.971 350.275 229.241 350.386C229.511 350.497 229.756 350.661 229.963 350.867C230.169 351.074 230.333 351.319 230.444 351.589C230.555 351.859 230.611 352.148 230.61 352.44Z" fill="#E0E0E0"/>
<path d="M273.9 377C273.9 377.439 273.77 377.868 273.526 378.233C273.282 378.598 272.935 378.883 272.53 379.051C272.124 379.219 271.677 379.263 271.247 379.177C270.816 379.092 270.421 378.88 270.11 378.57C269.8 378.259 269.588 377.864 269.503 377.433C269.417 377.002 269.461 376.556 269.629 376.15C269.797 375.745 270.082 375.398 270.447 375.154C270.812 374.91 271.241 374.78 271.68 374.78C271.971 374.78 272.26 374.837 272.53 374.949C272.799 375.061 273.044 375.224 273.25 375.43C273.456 375.636 273.619 375.881 273.731 376.15C273.843 376.42 273.9 376.708 273.9 377Z" fill="#E0E0E0"/>
<path d="M206.39 416.41L197.54 466.16H202.52L218.83 416.41H206.39Z" fill="#E0E0E0"/>
<path d="M345.51 416.41L352.91 466.25H347.93L333.07 416.41H345.51Z" fill="#E0E0E0"/>
<path d="M378.73 416.41L387.11 466.25H382.13L366.29 416.41H378.73Z" fill="#E0E0E0"/>
<path d="M273.75 399.43C273.752 399.87 273.623 400.3 273.381 400.666C273.138 401.033 272.792 401.319 272.387 401.488C271.981 401.658 271.534 401.703 271.103 401.619C270.672 401.534 270.275 401.323 269.964 401.013C269.652 400.703 269.44 400.308 269.353 399.877C269.267 399.446 269.31 398.999 269.478 398.593C269.646 398.187 269.93 397.839 270.296 397.595C270.661 397.351 271.091 397.22 271.53 397.22C272.117 397.22 272.68 397.453 273.096 397.867C273.512 398.281 273.747 398.843 273.75 399.43Z" fill="#E0E0E0"/>
<path d="M190.31 388H353C353.049 387.989 353.093 387.962 353.125 387.923C353.156 387.884 353.173 387.835 353.173 387.785C353.173 387.735 353.156 387.686 353.125 387.647C353.093 387.608 353.049 387.581 353 387.57H190.31C190.261 387.581 190.217 387.608 190.185 387.647C190.154 387.686 190.137 387.735 190.137 387.785C190.137 387.835 190.154 387.884 190.185 387.923C190.217 387.962 190.261 387.989 190.31 388Z" fill="#E0E0E0"/>
<path d="M305.797 310.268L305.741 299.688L253.792 299.96L253.847 310.54L305.797 310.268Z" fill="#E0E0E0"/>
<path d="M312.039 336.926L311.953 320.497L254.054 320.8L254.14 337.23L312.039 336.926Z" fill="#F5F5F5"/>
<path d="M300.9 336.83C300.617 334.103 300.524 331.36 300.62 328.62C300.524 325.877 300.617 323.13 300.9 320.4C301.177 323.131 301.27 325.877 301.18 328.62C301.27 331.36 301.176 334.103 300.9 336.83Z" fill="#E0E0E0"/>
<path d="M303.33 336.83C303.048 334.103 302.954 331.36 303.05 328.62C302.954 325.877 303.047 323.13 303.33 320.4C303.607 323.131 303.7 325.877 303.61 328.62C303.7 331.36 303.607 334.103 303.33 336.83Z" fill="#E0E0E0"/>
<path d="M262.86 336.83C262.583 334.103 262.49 331.36 262.58 328.62C262.49 325.877 262.583 323.131 262.86 320.4C263.143 323.13 263.236 325.877 263.14 328.62C263.236 331.36 263.143 334.103 262.86 336.83Z" fill="#E0E0E0"/>
<path d="M265.29 336.83C265.014 334.103 264.92 331.36 265.01 328.62C264.92 325.877 265.013 323.131 265.29 320.4C265.573 323.13 265.666 325.877 265.57 328.62C265.666 331.36 265.573 334.103 265.29 336.83Z" fill="#E0E0E0"/>
<path d="M270.6 328.88C270.6 328.72 276.44 328.6 283.6 328.6C290.76 328.6 296.6 328.72 296.6 328.88C296.6 329.04 290.76 329.17 283.6 329.17C276.44 329.17 270.6 329 270.6 328.88Z" fill="#E0E0E0"/>
<path d="M335.223 321.746L335.117 311.166L263.667 311.881L263.773 322.461L335.223 321.746Z" fill="#EBEBEB"/>
<path d="M323.57 319.11C322.892 319.12 322.225 318.928 321.657 318.558C321.088 318.188 320.641 317.658 320.375 317.034C320.108 316.41 320.033 315.721 320.16 315.054C320.286 314.387 320.608 313.773 321.084 313.29C321.56 312.807 322.169 312.476 322.834 312.34C323.499 312.204 324.189 312.269 324.817 312.526C325.445 312.783 325.982 313.221 326.36 313.785C326.738 314.348 326.94 315.011 326.94 315.69C326.945 316.59 326.594 317.455 325.962 318.097C325.33 318.738 324.47 319.102 323.57 319.11Z" fill="#E0E0E0"/>
<path d="M314.28 316.74V314.63H266.45V316.74H314.28Z" fill="#E0E0E0"/>
<path d="M47.13 369.83C42.6705 367.032 37.6271 365.297 32.39 364.76C29.98 364.51 27.39 364.58 25.39 366.04C25.1677 366.168 24.9837 366.354 24.8571 366.577C24.7305 366.8 24.6659 367.053 24.67 367.31C24.7838 367.676 25.0298 367.986 25.36 368.18C31.36 372.76 40.42 373.34 47.1 369.83" fill="#E0E0E0"/>
<path d="M46.75 369.41C43.3357 366.892 40.1501 364.078 37.23 361C34.2943 357.927 32.2242 354.132 31.23 350C31.0354 349.388 30.9767 348.74 31.0579 348.103C31.1391 347.466 31.3582 346.854 31.7 346.31C39.28 352.23 45.24 359.9 46.7 369.41" fill="#E0E0E0"/>
<path d="M47.05 369.77C46.3441 365.631 46.4051 361.397 47.23 357.28C48.0857 353.143 50.4578 349.476 53.88 347C55.2 350.07 54.63 353.6 53.71 356.8C52.2759 361.76 50.047 366.454 47.11 370.7" fill="#E0E0E0"/>
<path d="M54.49 383.1C49.97 383.65 46.04 386.03 42.67 389.1C39.2809 392.186 36.9212 396.239 35.91 400.71C40.34 400.43 44.1 397.31 46.82 393.81C49.54 390.31 51.43 386.47 54.43 383.19" fill="#E0E0E0"/>
<path d="M56.1 385.23C54.3265 380.716 53.7059 375.832 54.2943 371.018C54.8827 366.205 56.6616 361.614 59.47 357.66C62.04 366.81 61.1 377.15 56.1 385.23Z" fill="#E0E0E0"/>
<path d="M65.93 396.94C61.8037 396.683 57.6931 397.646 54.1101 399.709C50.5271 401.772 47.6302 404.843 45.78 408.54C45.53 409.04 45.31 409.67 45.64 410.12C45.815 410.289 46.0284 410.412 46.2619 410.48C46.4953 410.548 46.7417 410.559 46.98 410.51C50.98 410.25 54.47 407.86 57.38 405.14C60.29 402.42 62.81 399.28 66.02 396.92" fill="#E0E0E0"/>
<path d="M65.62 396.3C63.5 389.478 63.3681 382.194 65.24 375.3C65.98 372.6 67.24 369.76 69.72 368.49C69.9225 368.363 70.1663 368.32 70.4 368.37C70.6052 368.474 70.7626 368.653 70.84 368.87C71.6513 370.76 71.9944 372.819 71.84 374.87C71.7263 376.933 71.4454 378.983 71 381C70.21 384.72 69.79 388.72 67.75 391.93C67.2711 392.703 66.8403 393.504 66.46 394.33C66.07 395.15 66.07 395.44 65.71 396.08" fill="#E0E0E0"/>
<path d="M91.63 400.17C89.71 392.84 91.75 383.95 96.37 377.94C96.71 377.5 97.16 377.03 97.72 377.08C98.57 377.16 98.79 378.29 98.72 379.15C98.3698 386.681 95.902 393.959 91.6 400.15" fill="#E0E0E0"/>
<path d="M94 401.78C98.5498 402.849 103.277 402.92 107.857 401.988C112.437 401.056 116.76 399.143 120.53 396.38C116.091 394.151 111.016 393.529 106.17 394.62C101.37 395.72 96.99 397.86 94 401.78Z" fill="#E0E0E0"/>
<path d="M96 396.9C101 388.76 110.55 383.45 120.08 382.97C118.98 386.85 115.8 389.86 112.2 391.68C108.6 393.5 104.6 394.29 100.64 395.06C99.1 395.36 96.99 395.69 96 396.9Z" fill="#E0E0E0"/>
<path d="M92.13 373.21C93.6393 368.629 94.6715 363.904 95.21 359.11C95.58 354.3 94.89 349.28 92.4 345.16C87.74 354.16 87.27 364.71 91.99 373.69" fill="#E0E0E0"/>
<path d="M107.82 365.28C113.27 355.38 124.38 347.47 135.63 346.36C131.29 357.16 119.46 365.51 107.82 365.28Z" fill="#E0E0E0"/>
<path d="M104.39 367.22C112.52 368.46 119.39 373.65 127.03 376.8C128.622 377.568 130.386 377.912 132.15 377.8C132.972 377.794 133.772 377.535 134.441 377.058C135.11 376.581 135.617 375.91 135.891 375.135C136.165 374.36 136.194 373.52 135.974 372.728C135.754 371.937 135.295 371.232 134.66 370.71C133.586 369.712 132.32 368.943 130.94 368.45C122.67 365.01 113.8 364.92 105.09 367.01" fill="#E0E0E0"/>
<path d="M99.6899 372.92C101.53 373.45 102.15 374.4 103.61 375.64C108.576 379.865 114.453 382.884 120.78 384.46C121.44 384.62 122.3 384.69 122.63 384.1C122.96 383.51 122.55 382.95 122.18 382.49C119.414 379.269 115.832 376.851 111.81 375.49C107.81 374.02 104.42 372.24 99.6899 372.62" fill="#E0E0E0"/>
<path d="M94.38 338.49C97.7086 341.568 101.644 343.915 105.935 345.381C110.225 346.846 114.774 347.398 119.29 347C119.707 347.008 120.113 346.862 120.43 346.59C121.06 345.91 120.3 344.86 119.57 344.29C112.25 338.58 103.37 336.21 94.38 338.52" fill="#E0E0E0"/>
<path d="M100.67 336.19C105.082 332.946 110.197 330.79 115.6 329.899C121.003 329.007 126.54 329.405 131.76 331.06C127.708 334.822 122.51 337.115 117 337.57C111.534 338.068 106.024 337.601 100.72 336.19" fill="#E0E0E0"/>
<path d="M98.17 320.37C97.45 313.06 97.9201 307.29 97.4101 299.94C97.4101 299.36 97.2401 298.65 96.6901 298.44C95.9301 298.14 95.2901 299.08 95.0401 299.86C93.9786 303.266 93.7079 306.869 94.2485 310.396C94.7891 313.922 96.1269 317.278 98.1601 320.21" fill="#E0E0E0"/>
<path d="M97.64 321.18C102.419 318.097 106.538 314.096 109.76 309.41C112.15 306.14 114.17 302.21 113.62 298.2C111.935 298.244 110.28 298.655 108.771 299.404C107.261 300.154 105.933 301.224 104.88 302.54C102.789 305.199 101.273 308.264 100.43 311.54C99.43 314.75 98.78 318.06 97.64 321.22" fill="#E0E0E0"/>
<path d="M109.54 317.87C120.444 313.837 130.54 307.887 139.35 300.3C135.79 298.87 131.71 299.72 128.15 301.16C120.069 304.221 113.394 310.143 109.39 317.8" fill="#E0E0E0"/>
<path d="M101 325.18C106.5 325.78 112.09 326.18 117.55 325.26C123.01 324.34 127.99 322.26 133 320.13C133.419 319.993 133.774 319.708 134 319.33C134.08 319.099 134.088 318.848 134.022 318.612C133.956 318.376 133.819 318.166 133.63 318.01C133.243 317.705 132.792 317.493 132.31 317.39C126.86 315.87 120.97 316.58 115.61 318.39C110.519 320.143 105.623 322.419 101 325.18Z" fill="#E0E0E0"/>
<path d="M69.57 338.74C65.82 331.17 66.06 322.32 69.3 314.51C71.59 317.99 71.87 322.42 71.45 326.56C71.03 330.7 69.77 334.96 69.69 339.12" fill="#E0E0E0"/>
<path d="M54.58 331.18C49.8791 331.12 45.2174 332.04 40.8922 333.882C36.567 335.725 32.6734 338.449 29.46 341.88C34.1959 342.446 38.992 341.557 43.21 339.33C47.3981 337.108 51.3486 334.464 55 331.44" fill="#E0E0E0"/>
<path d="M44.49 327.81C39.91 327.44 35.49 326.87 31.09 328.22C28.8647 328.845 26.8001 329.942 25.0366 331.437C23.2731 332.931 21.852 334.788 20.87 336.88C25.1968 337.233 29.5389 336.415 33.44 334.51C37.3156 332.61 41.0136 330.368 44.49 327.81Z" fill="#E0E0E0"/>
<path d="M59.42 328C55.3 325.3 51.06 322.55 46.26 321.43C41.46 320.31 35.89 321.14 32.54 324.76C36.43 327.04 41.15 327.31 45.65 327.3C50.15 327.29 55.65 327.25 59.94 328.75" fill="#E0E0E0"/>
<path d="M59.45 328.18C52.39 321.26 49.72 308.82 52.56 299.35C58.122 307.874 60.5569 318.062 59.45 328.18Z" fill="#E0E0E0"/>
<path d="M78.84 308.56C80.17 305.47 81.1 302.22 82.29 299.08C83.3815 295.883 85.0565 292.916 87.23 290.33C89.4458 287.729 92.5963 286.106 96 285.81C94.91 290.585 92.8348 295.079 89.9074 299.005C86.98 302.931 83.2649 306.203 79 308.61" fill="#E0E0E0"/>
<path d="M75.33 312.65C73.13 309.65 70.58 305.51 67.6 303.25C64.62 300.99 60.73 299.62 57.09 300.49C58.9748 303.796 61.605 306.617 64.7714 308.728C67.9379 310.839 71.5533 312.182 75.33 312.65Z" fill="#E0E0E0"/>
<path d="M76 308.81C74.4188 305.2 73.2513 301.423 72.52 297.55C71.7971 293.641 72.4173 289.602 74.28 286.09C78.15 293.41 79.4 301.26 76.2 308.9" fill="#E0E0E0"/>
<path d="M78.87 286.09C81.06 278.84 87.71 273.5 94.87 271.09C95.7552 270.724 96.7164 270.58 97.67 270.67C98.1465 270.72 98.5976 270.91 98.9661 271.216C99.3346 271.522 99.604 271.931 99.74 272.39C100 273.63 98.98 274.73 98.03 275.55C92.4229 280.339 85.9009 283.939 78.86 286.13" fill="#E0E0E0"/>
<path d="M78.9999 280.16C79.2799 275.48 79.5699 270.74 81.0899 266.31C82.6099 261.88 85.5499 257.72 89.8099 255.78C90.5399 260.5 88.4499 265.2 85.9399 269.27C83.4299 273.34 80.3999 277.17 78.9399 281.7" fill="#E0E0E0"/>
<path d="M78.84 283.38C77.02 278.09 76.84 271.38 73.67 266.77C71.46 263.55 67.91 261.36 66.01 257.95C64.8636 261.216 65.0212 264.798 66.45 267.95C67.894 271.067 69.8779 273.904 72.31 276.33C74.65 278.83 76.66 280.71 78.84 283.33" fill="#E0E0E0"/>
<path d="M78.87 439.06C78.73 439.06 78.61 403.79 78.6 360.3C78.59 316.81 78.7 281.54 78.84 281.54C78.98 281.54 79.1 316.8 79.11 360.3C79.12 403.8 79 439.06 78.87 439.06Z" fill="#E0E0E0"/>
<path d="M109.69 333.42C109.265 333.632 108.819 333.8 108.36 333.92L104.71 335.15C101.64 336.2 97.41 337.72 92.82 339.6C88.23 341.48 84 343.13 81.56 345.24C80.5845 346.051 79.8108 347.078 79.3001 348.24C78.9501 349.06 78.88 349.57 78.84 349.56C78.8 349.55 78.84 349.43 78.84 349.19C78.8949 348.849 78.982 348.514 79.1 348.19C79.5702 346.962 80.3321 345.867 81.32 345C82.7942 343.766 84.4418 342.755 86.21 342C88.21 341.08 90.33 340.13 92.63 339.19C97.23 337.3 101.49 335.83 104.63 334.87C106.19 334.38 107.46 334.03 108.34 333.79C108.779 333.628 109.23 333.504 109.69 333.42Z" fill="#E0E0E0"/>
<path d="M119.79 308.61C119.68 308.755 119.556 308.89 119.42 309.01L118.29 310.07L114.06 313.91L100 326.43C94.51 331.31 89.77 335.98 86.48 339.5C84.84 341.25 83.54 342.71 82.66 343.72L81.66 344.89C81.43 345.15 81.3 345.29 81.28 345.28C81.3615 345.113 81.4658 344.958 81.59 344.82C81.8 344.54 82.11 344.12 82.53 343.59C83.37 342.59 84.63 341.04 86.25 339.25C90.4947 334.617 94.981 330.211 99.69 326.05C105.2 321.17 110.21 316.79 113.85 313.64L118.19 309.92L119.38 308.92C119.507 308.804 119.644 308.701 119.79 308.61Z" fill="#E0E0E0"/>
<path d="M94.08 331.4C93.93 331.33 95.08 328.68 96.22 325.34C97.36 322 97.92 319.16 98.06 319.19C97.9459 321.351 97.4903 323.481 96.71 325.5C96.216 326.943 95.6452 328.358 95 329.74C94.7684 330.332 94.459 330.89 94.08 331.4Z" fill="#E0E0E0"/>
<path d="M78.9 352.74C78.5916 352.432 78.3105 352.097 78.06 351.74L75.89 349C74.07 346.65 71.56 343.4 68.74 339.85C65.92 336.3 63.32 333.1 61.44 330.8C60.56 329.7 59.82 328.8 59.23 328.06C58.9412 327.735 58.6834 327.383 58.46 327.01C58.7979 327.284 59.1063 327.592 59.38 327.93C59.94 328.54 60.74 329.44 61.72 330.57C63.72 332.82 66.31 335.97 69.13 339.57C71.95 343.17 74.43 346.41 76.18 348.82C77.05 350.03 77.75 351.01 78.18 351.7C78.4567 352.02 78.6981 352.368 78.9 352.74Z" fill="#E0E0E0"/>
<path d="M72.15 344.07C70.7824 342.565 69.81 340.744 69.32 338.77C68.7881 337.039 68.568 335.228 68.67 333.42H68.9C68.8 333.83 68.72 334.05 68.68 334.04C68.64 334.03 68.68 333.8 68.68 333.39H68.9C69.0126 335.151 69.3143 336.894 69.8 338.59C70.4446 340.473 71.2302 342.305 72.15 344.07Z" fill="#E0E0E0"/>
<path d="M63.42 333.09C62.8064 332.621 62.134 332.234 61.42 331.94C59.6406 331.412 57.7699 331.266 55.93 331.51C54.0655 331.656 52.2161 331.954 50.4 332.4C49.6574 332.637 48.8988 332.821 48.13 332.95C48.8073 332.542 49.5423 332.239 50.31 332.05C52.1345 331.49 54.0164 331.138 55.92 331C57.8283 330.746 59.7696 330.956 61.58 331.61C62.3492 331.87 63.0012 332.395 63.42 333.09Z" fill="#E0E0E0"/>
<path d="M61.3599 330.43C61.3599 330.51 60.1999 329.97 58.3599 329.33C55.9136 328.503 53.3743 327.983 50.7999 327.78C48.2271 327.585 45.6399 327.716 43.0999 328.17C41.0999 328.52 39.9599 328.88 39.9399 328.8C39.9199 328.72 40.2099 328.64 40.7399 328.46C41.4895 328.197 42.2542 327.98 43.0299 327.81C48.1762 326.698 53.5353 327.111 58.4499 329C59.1889 329.291 59.9101 329.625 60.6099 330C60.8781 330.109 61.1303 330.254 61.3599 330.43Z" fill="#E0E0E0"/>
<path d="M78.84 319.19C77.9378 316.684 77.1996 314.122 76.63 311.52C75.8945 308.959 75.32 306.353 74.91 303.72C75.814 306.226 76.5523 308.788 77.12 311.39C77.8578 313.951 78.4323 316.556 78.84 319.19Z" fill="#E0E0E0"/>
<path d="M79 319.19C78.2924 317.601 77.4737 316.064 76.55 314.59C75.5099 313.208 74.3005 311.961 72.95 310.88C73.4638 311.001 73.9407 311.245 74.34 311.59C75.3698 312.341 76.2686 313.256 77 314.3C78.0825 315.727 78.772 317.413 79 319.19Z" fill="#E0E0E0"/>
<path d="M78.87 420.26C78.82 420.26 78.71 419.41 78.32 417.92C77.7438 415.814 76.9669 413.768 76 411.81C73.56 406.81 69.13 400.52 63.5 394.19C60.7 391.01 58 388 55.7 385.12C53.6331 382.586 51.7674 379.895 50.12 377.07C49.0071 375.157 48.0667 373.149 47.31 371.07C47.05 370.34 46.86 369.76 46.75 369.37C46.6792 369.173 46.6322 368.968 46.61 368.76C46.61 368.76 46.91 369.57 47.49 371C48.3227 373.024 49.3054 374.983 50.43 376.86C52.0945 379.643 53.9559 382.303 56 384.82C58.31 387.67 61 390.66 63.82 393.82C69.47 400.16 73.89 406.55 76.26 411.61C77.2277 413.596 77.9755 415.682 78.49 417.83C78.65 418.59 78.76 419.19 78.8 419.6C78.8512 419.816 78.8747 420.038 78.87 420.26Z" fill="#E0E0E0"/>
<path d="M106.72 388.81C106.247 389.108 105.76 389.381 105.26 389.63C103.937 390.37 102.67 391.205 101.47 392.13C99.6878 393.507 98.0161 395.022 96.47 396.66C94.73 398.51 92.93 400.66 91.1 402.94C87.43 407.54 84 411.61 81.94 414.87C80.94 416.48 80.14 417.87 79.65 418.79C79.4124 419.297 79.1418 419.788 78.84 420.26C78.8663 420.117 78.9134 419.979 78.98 419.85C79.09 419.58 79.23 419.19 79.47 418.7C80.111 417.324 80.8357 415.988 81.64 414.7C83.64 411.37 87.04 407.25 90.7 402.65C92.54 400.35 94.36 398.21 96.13 396.37C97.7009 394.73 99.4069 393.225 101.23 391.87C102.464 390.966 103.772 390.167 105.14 389.48C105.62 389.24 106.02 389.09 106.28 388.98C106.54 388.87 106.71 388.79 106.72 388.81Z" fill="#E0E0E0"/>
<path d="M107.26 399C106.246 399.225 105.216 399.375 104.18 399.45C101.7 399.701 99.2498 400.183 96.86 400.89C94.4985 401.66 92.284 402.823 90.31 404.33C88.8 405.49 88.09 406.46 88.02 406.4C88.1317 406.139 88.2873 405.899 88.48 405.69C88.9598 405.09 89.4992 404.541 90.09 404.05C92.0422 402.42 94.2897 401.181 96.71 400.4C99.13 399.687 101.622 399.248 104.14 399.09C105.175 398.962 106.22 398.932 107.26 399Z" fill="#E0E0E0"/>
<path d="M88.92 405.29C88.76 405.2 90.15 403.08 91.23 400.22C92.31 397.36 92.48 394.81 92.66 394.84C92.7544 395.389 92.7544 395.951 92.66 396.5C92.5052 397.826 92.2033 399.131 91.76 400.39C91.2764 401.655 90.6596 402.865 89.92 404C89.37 404.83 89 405.33 88.92 405.29Z" fill="#E0E0E0"/>
<path d="M115.74 361.41C115.589 361.519 115.425 361.607 115.25 361.67L113.8 362.33C113.16 362.6 112.39 362.95 111.52 363.41C110.65 363.87 109.63 364.32 108.52 364.96L106.84 365.96C106.26 366.3 105.68 366.7 105.07 367.08C103.83 367.83 102.58 368.76 101.26 369.71C95.5719 373.936 90.6131 379.064 86.5799 384.89C85.6799 386.25 84.7999 387.52 84.0899 388.79C83.7199 389.42 83.3499 390.01 83.0299 390.6L82.1299 392.32C81.5299 393.4 81.1299 394.43 80.6799 395.32C80.2299 396.21 79.9399 396.98 79.6799 397.63C79.4199 398.28 79.2299 398.71 79.0699 399.1C79.0049 399.275 78.9211 399.443 78.8199 399.6C78.8606 399.395 78.9209 399.194 78.9999 399L79.5199 397.49C79.7499 396.84 80.0399 396.04 80.4399 395.14C80.8399 394.24 81.2499 393.19 81.8299 392.14L82.6999 390.39C83.0099 389.79 83.3899 389.19 83.6999 388.56C84.3999 387.27 85.2799 385.98 86.1799 384.61C90.2121 378.694 95.224 373.51 101 369.28C102.34 368.34 103.6 367.42 104.86 366.68C105.48 366.3 106.07 365.9 106.66 365.57L108.37 364.64C109.45 364.02 110.48 363.58 111.37 363.15C112.26 362.72 113.04 362.4 113.69 362.15L115.18 361.58C115.357 361.495 115.546 361.437 115.74 361.41Z" fill="#E0E0E0"/>
<path d="M93.7 376.18C93.9 375.463 94.3239 374.829 94.91 374.37C96.2662 373.192 97.994 372.53 99.79 372.5C101.552 372.491 103.299 372.831 104.93 373.5C105.623 373.718 106.281 374.039 106.88 374.45C106.173 374.309 105.48 374.105 104.81 373.84C103.199 373.295 101.511 373.014 99.81 373.01C98.1212 373.044 96.488 373.619 95.15 374.65C94.6293 375.123 94.1447 375.635 93.7 376.18Z" fill="#E0E0E0"/>
<path d="M90.4 379.58C91.0576 378.144 91.5248 376.628 91.79 375.07C91.8951 373.493 91.7908 371.91 91.48 370.36C91.54 370.36 91.81 370.81 92.05 371.67C92.3467 372.795 92.4315 373.965 92.3 375.12C92.1815 376.277 91.8421 377.401 91.3 378.43C90.83 379.21 90.45 379.61 90.4 379.58Z" fill="#E0E0E0"/>
<path d="M54.52 425.31C55.28 438.79 59.34 452.5 65.58 466.31H92.75C98.75 452.59 102.49 438.91 103.16 425.31H54.52Z" fill="#E0E0E0"/>
<path d="M98.75 447.12C98.75 447.26 89.81 447.38 78.75 447.38C67.69 447.38 58.75 447.26 58.75 447.12C58.75 446.98 67.75 446.87 78.75 446.87C89.75 446.87 98.75 447 98.75 447.12Z" fill="#FAFAFA"/>
<path d="M98.15 452C98.15 452.14 89.7599 452.26 79.4199 452.26C69.0799 452.26 60.7 452.14 60.7 452C60.7 451.86 69.0799 451.75 79.4199 451.75C89.7599 451.75 98.15 451.86 98.15 452Z" fill="#FAFAFA"/>
<path d="M66 434.16C66.3467 438.326 66.3467 442.514 66 446.68C65.6667 442.513 65.6667 438.327 66 434.16Z" fill="#FAFAFA"/>
<path d="M80.58 434.16C80.9154 438.487 80.9154 442.833 80.58 447.16C80.2312 442.834 80.2312 438.486 80.58 434.16Z" fill="#FAFAFA"/>
<path d="M94.24 434.05C94.5733 438.45 94.5733 442.87 94.24 447.27C93.8933 442.87 93.8933 438.45 94.24 434.05Z" fill="#FAFAFA"/>
<path d="M102.29 434.16C102.29 434.3 91.7999 434.42 78.8699 434.42C65.9399 434.42 55.4399 434.3 55.4399 434.16C55.4399 434.02 65.9299 433.91 78.8699 433.91C91.8099 433.91 102.29 434 102.29 434.16Z" fill="#FAFAFA"/>
<path d="M458.34 466.35C458.34 466.5 366.4 466.61 253.01 466.61C139.62 466.61 47.66 466.5 47.66 466.35C47.66 466.2 139.58 466.09 253.01 466.09C366.44 466.09 458.34 466.21 458.34 466.35Z" fill="#263238"/>
<path d="M356.6 78.76H170.34C165.994 78.76 162.47 82.2835 162.47 86.63V231.16C162.47 235.506 165.994 239.03 170.34 239.03H356.6C360.947 239.03 364.47 235.506 364.47 231.16V86.63C364.47 82.2835 360.947 78.76 356.6 78.76Z" fill="white"/>
<path d="M325.48 157.84C323.495 155.836 320.808 154.683 317.988 154.625C315.168 154.568 312.436 155.609 310.37 157.53L291.47 175.14C291.47 175.14 277 188 267.64 194.26C266.573 195.146 265.227 195.625 263.84 195.61C262.79 195.415 261.824 194.906 261.07 194.15L236.16 173.26L227.08 165.7C223.683 162.864 219.419 161.274 214.994 161.192C210.57 161.11 206.25 162.542 202.75 165.25C184.12 179.65 162.75 196.89 162.75 196.89L162.51 232.42C162.51 236.06 166.39 239.03 171.21 239.03H355.29C360.36 239.03 364.47 235.92 364.47 232.09V197.15L325.48 157.84Z" fill="#455A64"/>
<path d="M308.125 137.788C313.369 132.543 313.369 124.04 308.125 118.795C302.88 113.55 294.376 113.55 289.132 118.795C283.887 124.04 283.887 132.543 289.132 137.788C294.376 143.033 302.88 143.033 308.125 137.788Z" fill="#455A64"/>
<path d="M356.6 239H357.06C357.519 238.969 357.973 238.898 358.42 238.79C360.172 238.359 361.722 237.339 362.81 235.9C363.614 234.854 364.131 233.617 364.31 232.31C364.402 231.554 364.432 230.791 364.4 230.03C364.4 229.23 364.4 228.4 364.4 227.54C364.4 224.067 364.4 220.067 364.4 215.54C364.4 197.54 364.35 171.54 364.32 139.35C364.32 123.27 364.32 105.65 364.32 86.74C364.356 84.9729 363.778 83.2481 362.683 81.8601C361.589 80.4722 360.047 79.5072 358.32 79.13C357.134 78.9348 355.93 78.8711 354.73 78.94H308.73L170.36 79C168.872 79.0017 167.417 79.438 166.173 80.2552C164.93 81.0723 163.952 82.2348 163.36 83.6C163.075 84.2803 162.886 84.9973 162.8 85.73C162.74 86.4783 162.72 87.2294 162.74 87.98V145.89C162.74 169.04 162.74 191.37 162.74 212.63V228.4C162.701 229.68 162.728 230.962 162.82 232.24C162.985 233.48 163.464 234.657 164.21 235.66C164.939 236.659 165.899 237.467 167.009 238.014C168.118 238.561 169.344 238.831 170.58 238.8H199.9H252.51L328.7 238.88H349.41H354.8C356.01 238.88 356.63 238.88 356.63 238.88H354.8H349.41H328.7L252.51 238.97H199.9H170.55C169.24 239.001 167.941 238.714 166.766 238.134C165.59 237.554 164.573 236.699 163.8 235.64C163.011 234.574 162.505 233.325 162.33 232.01C162.17 230.68 162.27 229.42 162.24 228.11C162.24 222.93 162.24 217.68 162.24 212.36C162.24 191.1 162.24 168.77 162.24 145.62C162.24 134.053 162.24 122.287 162.24 110.32V88C162.22 87.2294 162.24 86.4584 162.3 85.69C162.398 84.91 162.6 84.1466 162.9 83.42C163.533 81.9593 164.58 80.7155 165.91 79.8414C167.241 78.9673 168.798 78.5011 170.39 78.5H308.75H354.75C355.984 78.4324 357.221 78.4994 358.44 78.7C360.253 79.1025 361.872 80.1182 363.023 81.5756C364.175 83.033 364.788 84.8429 364.76 86.7C364.76 105.61 364.76 123.23 364.76 139.31C364.76 171.47 364.7 197.5 364.68 215.5C364.68 220 364.68 224 364.68 227.5C364.68 228.36 364.68 229.19 364.68 229.99C364.708 230.758 364.675 231.527 364.58 232.29C364.346 233.851 363.649 235.305 362.579 236.466C361.51 237.626 360.117 238.439 358.58 238.8C358.134 238.906 357.678 238.966 357.22 238.98L356.6 239Z" fill="#263238"/>
<path d="M171.63 220.82V221.39H169V220.94L170.44 219.58C170.79 219.24 170.85 219.03 170.85 218.83C170.85 218.63 170.62 218.3 170.18 218.3C170.018 218.29 169.856 218.319 169.708 218.385C169.56 218.451 169.43 218.552 169.33 218.68L168.86 218.32C169.026 218.12 169.236 217.961 169.474 217.857C169.712 217.753 169.971 217.706 170.23 217.72C171.02 217.72 171.53 218.12 171.53 218.72C171.525 218.943 171.468 219.163 171.364 219.36C171.26 219.558 171.111 219.729 170.93 219.86L169.93 220.78L171.63 220.82Z" fill="white"/>
<path d="M172 219C172 218.915 172.025 218.832 172.072 218.761C172.12 218.69 172.187 218.635 172.265 218.603C172.344 218.57 172.43 218.562 172.514 218.578C172.597 218.595 172.674 218.636 172.734 218.696C172.794 218.756 172.835 218.833 172.852 218.916C172.868 218.999 172.86 219.086 172.827 219.164C172.795 219.243 172.74 219.31 172.669 219.357C172.598 219.405 172.515 219.43 172.43 219.43C172.373 219.431 172.317 219.421 172.264 219.4C172.211 219.379 172.163 219.347 172.123 219.307C172.083 219.267 172.051 219.219 172.03 219.166C172.009 219.113 171.999 219.057 172 219ZM172 221C172 220.915 172.025 220.832 172.072 220.761C172.12 220.69 172.187 220.635 172.265 220.603C172.344 220.57 172.43 220.562 172.514 220.578C172.597 220.595 172.674 220.636 172.734 220.696C172.794 220.756 172.835 220.833 172.852 220.916C172.868 220.999 172.86 221.086 172.827 221.164C172.795 221.243 172.74 221.31 172.669 221.357C172.598 221.405 172.515 221.43 172.43 221.43C172.373 221.431 172.317 221.421 172.264 221.4C172.211 221.379 172.163 221.347 172.123 221.307C172.083 221.267 172.051 221.219 172.03 221.166C172.009 221.113 171.999 221.057 172 221Z" fill="white"/>
<path d="M174.53 217.77V221.39H173.85V218.33H173.09V217.77H174.53Z" fill="white"/>
<path d="M178.47 220.57H177.83V221.39H177.18V220.57H175.18V220.1L176.97 217.77H177.69L176 220H177.19V219.27H177.82V220H178.46L178.47 220.57Z" fill="white"/>
<path d="M325.38 219.12H184.39V220.37H325.38V219.12Z" fill="white"/>
<path d="M270.09 217.77H184.19V221.11H270.09V217.77Z" fill="#1C469A"/>
<path d="M272.86 219.75C272.862 220.579 272.618 221.39 272.159 222.08C271.7 222.771 271.046 223.309 270.28 223.628C269.515 223.947 268.672 224.031 267.859 223.871C267.045 223.71 266.298 223.312 265.711 222.726C265.124 222.141 264.724 221.394 264.561 220.581C264.399 219.768 264.481 218.925 264.798 218.159C265.115 217.393 265.652 216.738 266.341 216.277C267.03 215.816 267.841 215.57 268.67 215.57C269.78 215.57 270.844 216.01 271.629 216.794C272.415 217.577 272.857 218.64 272.86 219.75Z" fill="#1C469A"/>
<path d="M334.7 220.47C334.697 220.636 334.659 220.799 334.59 220.949C334.52 221.1 334.42 221.234 334.296 221.344C334.172 221.454 334.027 221.537 333.869 221.588C333.711 221.639 333.545 221.657 333.38 221.64C332.38 221.64 331.81 221.01 331.81 219.84C331.779 219.593 331.803 219.343 331.879 219.106C331.955 218.869 332.081 218.652 332.25 218.469C332.418 218.287 332.624 218.143 332.854 218.048C333.084 217.953 333.332 217.909 333.58 217.92C333.912 217.905 334.241 217.985 334.53 218.15L334.29 218.66C334.082 218.534 333.843 218.472 333.6 218.48C332.92 218.48 332.49 218.91 332.49 219.73C332.618 219.597 332.774 219.494 332.947 219.43C333.121 219.366 333.306 219.342 333.49 219.36C333.643 219.349 333.797 219.37 333.942 219.42C334.087 219.471 334.221 219.55 334.334 219.654C334.447 219.758 334.538 219.884 334.601 220.024C334.664 220.165 334.698 220.316 334.7 220.47ZM334.05 220.47C334.05 220.09 333.76 219.85 333.32 219.85C333.231 219.84 333.141 219.849 333.055 219.875C332.969 219.902 332.89 219.945 332.822 220.003C332.753 220.061 332.698 220.132 332.658 220.213C332.618 220.293 332.595 220.38 332.59 220.47C332.59 220.82 332.86 221.08 333.34 221.08C333.82 221.08 334.05 220.88 334.05 220.5V220.47Z" fill="white"/>
<path d="M335 219.23C334.997 219.174 335.006 219.117 335.026 219.065C335.046 219.012 335.077 218.964 335.116 218.923C335.156 218.883 335.203 218.851 335.255 218.83C335.308 218.809 335.364 218.798 335.42 218.8C335.477 218.799 335.533 218.809 335.586 218.83C335.639 218.851 335.687 218.883 335.727 218.923C335.767 218.963 335.799 219.011 335.82 219.064C335.841 219.117 335.851 219.173 335.85 219.23C335.85 219.286 335.839 219.342 335.817 219.394C335.796 219.447 335.764 219.494 335.724 219.534C335.684 219.574 335.637 219.606 335.585 219.627C335.532 219.649 335.477 219.66 335.42 219.66C335.364 219.66 335.309 219.649 335.257 219.627C335.205 219.605 335.159 219.573 335.119 219.533C335.08 219.493 335.05 219.446 335.029 219.394C335.009 219.342 334.999 219.286 335 219.23ZM335 221.23C334.997 221.174 335.006 221.117 335.026 221.065C335.046 221.012 335.077 220.964 335.116 220.923C335.156 220.883 335.203 220.851 335.255 220.83C335.308 220.809 335.364 220.798 335.42 220.8C335.477 220.799 335.533 220.809 335.586 220.83C335.639 220.851 335.687 220.883 335.727 220.923C335.767 220.963 335.799 221.011 335.82 221.064C335.841 221.117 335.851 221.173 335.85 221.23C335.85 221.344 335.805 221.453 335.724 221.534C335.643 221.615 335.534 221.66 335.42 221.66C335.361 221.66 335.303 221.648 335.25 221.625C335.196 221.601 335.148 221.566 335.108 221.523C335.068 221.48 335.038 221.429 335.02 221.373C335.001 221.317 334.994 221.258 335 221.2V221.23Z" fill="white"/>
<path d="M336.31 219.78C336.31 218.59 336.96 217.92 337.82 217.92C338.68 217.92 339.34 218.59 339.34 219.78C339.34 220.97 338.69 221.64 337.82 221.64C336.95 221.64 336.31 221 336.31 219.78ZM338.66 219.78C338.66 218.91 338.32 218.5 337.82 218.5C337.32 218.5 336.99 218.91 336.99 219.78C336.99 220.65 337.33 221.06 337.82 221.06C338.31 221.06 338.66 220.65 338.66 219.78Z" fill="white"/>
<path d="M339.79 219.78C339.79 218.59 340.44 217.92 341.3 217.92C342.16 217.92 342.82 218.59 342.82 219.78C342.82 220.97 342.16 221.64 341.3 221.64C340.44 221.64 339.79 221 339.79 219.78ZM342.14 219.78C342.14 218.91 341.8 218.5 341.3 218.5C340.8 218.5 340.47 218.91 340.47 219.78C340.47 220.65 340.81 221.06 341.3 221.06C341.79 221.06 342.14 220.65 342.14 219.78Z" fill="white"/>
<path d="M348.67 219.56H347.42V215.94H351.02V217.19H348.67V219.56Z" fill="white"/>
<path d="M351.02 224.27H347.41V220.66H348.67V223.02H351.02V224.27Z" fill="white"/>
<path d="M356.78 224.27H353.17V223.02H355.52V220.66H356.78V224.27Z" fill="white"/>
<path d="M356.78 219.55H355.53V217.19H353.17V215.94H356.78V219.55Z" fill="white"/>
<path d="M285.925 155.492C287.923 143.088 279.487 131.412 267.082 129.414C254.677 127.416 243.002 135.852 241.004 148.257C239.006 160.661 247.442 172.337 259.847 174.335C272.251 176.333 283.927 167.897 285.925 155.492Z" fill="#1C469A"/>
<path d="M286.23 151.88C286.199 151.759 286.182 151.635 286.18 151.51C286.18 151.24 286.13 150.89 286.1 150.43L286.05 149.64C286.05 149.35 285.95 149.03 285.9 148.69C285.795 147.9 285.634 147.118 285.42 146.35C284.876 144.235 284.02 142.213 282.88 140.35C280.185 135.852 276.008 132.434 271.066 130.682C266.124 128.93 260.726 128.954 255.8 130.75C254.795 131.117 253.816 131.551 252.87 132.05C251.909 132.574 250.987 133.165 250.11 133.82C249.213 134.486 248.361 135.21 247.56 135.99C246.768 136.811 246.03 137.683 245.35 138.6C243.955 140.481 242.871 142.575 242.14 144.8C241.4 147.095 241.009 149.489 240.98 151.9C241.004 154.312 241.396 156.706 242.14 159C242.867 161.227 243.951 163.321 245.35 165.2C246.666 167.042 248.274 168.657 250.11 169.98C250.987 170.635 251.909 171.226 252.87 171.75C253.816 172.236 254.795 172.654 255.8 173C259.339 174.298 263.147 174.686 266.874 174.127C270.602 173.567 274.128 172.08 277.13 169.8C279.443 168.059 281.396 165.886 282.88 163.4C284.022 161.538 284.878 159.516 285.42 157.4C285.634 156.632 285.795 155.85 285.9 155.06C285.95 154.72 286.01 154.4 286.05 154.11C286.09 153.82 286.05 153.56 286.1 153.32C286.1 152.86 286.16 152.51 286.18 152.24C286.181 152.115 286.198 151.991 286.23 151.87C286.237 151.993 286.237 152.117 286.23 152.24C286.23 152.513 286.23 152.873 286.23 153.32C286.23 153.56 286.23 153.83 286.23 154.12C286.23 154.41 286.15 154.73 286.1 155.12C286.009 155.919 285.862 156.711 285.66 157.49C285.156 159.643 284.319 161.704 283.18 163.6C281.53 166.404 279.301 168.823 276.642 170.698C273.983 172.572 270.955 173.858 267.76 174.47C263.72 175.221 259.552 174.876 255.69 173.47C254.66 173.101 253.658 172.66 252.69 172.15C251.704 171.62 250.758 171.018 249.86 170.35C248.942 169.669 248.07 168.927 247.25 168.13C246.436 167.297 245.681 166.408 244.99 165.47C243.559 163.548 242.448 161.407 241.7 159.13C240.113 154.42 240.113 149.32 241.7 144.61C242.446 142.332 243.557 140.191 244.99 138.27C245.681 137.332 246.436 136.443 247.25 135.61C248.07 134.813 248.942 134.071 249.86 133.39C250.758 132.722 251.704 132.12 252.69 131.59C253.658 131.08 254.66 130.639 255.69 130.27C259.552 128.864 263.72 128.519 267.76 129.27C270.955 129.882 273.983 131.168 276.642 133.042C279.301 134.917 281.53 137.336 283.18 140.14C284.321 142.035 285.157 144.096 285.66 146.25C285.863 147.028 286.01 147.82 286.1 148.62C286.15 148.96 286.2 149.28 286.23 149.62C286.26 149.96 286.23 150.17 286.23 150.42C286.23 150.867 286.23 151.227 286.23 151.5C286.237 151.627 286.237 151.753 286.23 151.88Z" fill="#263238"/>
<path d="M261.43 143.61H256.64V160.15H261.43V143.61Z" fill="white"/>
<path d="M270.3 143.61H265.51V160.15H270.3V143.61Z" fill="white"/>
<path d="M446.1 252.4C435 258.17 426.42 268.1 420.28 279C414.14 289.9 410.19 301.93 406.28 313.84L402.85 375.27C415.85 353.27 426.2 327.32 429.01 301.91L420.39 301.14C426.17 300.26 431.02 296.07 434.11 291.14C437.2 286.21 438.79 280.45 440.34 274.81L429.82 276.37C438.124 270.767 443.953 262.184 446.1 252.4Z" fill="#455A64"/>
<g opacity="0.3">
<path d="M446.1 252.4C435 258.17 426.42 268.1 420.28 279C414.14 289.9 410.19 301.93 406.28 313.84L402.85 375.27C415.85 353.27 426.2 327.32 429.01 301.91L420.39 301.14C426.17 300.26 431.02 296.07 434.11 291.14C437.2 286.21 438.79 280.45 440.34 274.81L429.82 276.37C438.124 270.767 443.953 262.184 446.1 252.4Z" fill="black"/>
</g>
<path d="M400.92 389.7C400.92 389.7 372.8 356.05 373.12 323.91H384.48C384.48 323.91 372.15 315.8 373.12 311.26C374.09 306.72 374.42 289.51 374.42 289.51L384.81 292.11C384.81 292.11 377.02 288.21 376.05 282.05C375.08 275.89 378.32 247.32 378.32 247.32C378.32 247.32 390.98 260.63 394.87 274.26C398.76 287.89 409 303.79 406 345.34C403 386.89 400.92 389.7 400.92 389.7Z" fill="#455A64"/>
<path d="M415.18 392.88C415.18 392.88 445.64 372.59 452.41 346.68L443.28 344.2C443.28 344.2 454.98 340.37 455.18 336.51C455.38 332.65 458.9 318.74 458.9 318.74L449.98 318.55C449.98 318.55 457.09 317.13 459.22 312.38C461.35 307.63 465 284 465 284C465 284 451.91 291.93 445.79 302C439.67 312.07 428 322.66 421.31 356.71C414.62 390.76 415.18 392.88 415.18 392.88Z" fill="#455A64"/>
<path d="M386 276.66C386.043 276.774 386.076 276.891 386.1 277.01C386.17 277.28 386.25 277.62 386.35 278.01C386.56 278.96 386.87 280.3 387.25 282.01C387.63 283.72 388.09 285.87 388.59 288.35C389.09 290.83 389.67 293.64 390.25 296.76C391.45 303 392.72 310.46 394.03 318.76C395.34 327.06 396.57 336.22 397.7 345.85C398.83 355.48 399.65 364.69 400.31 373.07C400.97 381.45 401.4 389 401.64 395.36C401.8 398.53 401.87 401.36 401.95 403.93C402.03 406.5 402.08 408.62 402.09 410.4C402.1 412.18 402.09 413.52 402.09 414.49C402.09 414.94 402.09 415.29 402.09 415.56C402.105 415.68 402.105 415.801 402.09 415.92C402.079 415.8 402.079 415.68 402.09 415.56C402.09 415.29 402.09 414.94 402.04 414.49C402.04 413.49 401.96 412.15 401.9 410.41C401.84 408.67 401.77 406.46 401.66 403.94C401.55 401.42 401.45 398.55 401.26 395.38C400.96 389.03 400.46 381.48 399.81 373.11C399.16 364.74 398.25 355.55 397.15 345.91C396.05 336.27 394.77 327.14 393.54 318.84C392.31 310.54 391.03 303.07 389.87 296.84C389.33 293.71 388.77 290.89 388.3 288.41C387.83 285.93 387.41 283.8 387.06 282.06C386.71 280.32 386.45 279 386.27 278.06C386.19 277.63 386.12 277.28 386.08 277.06C386.039 276.93 386.012 276.796 386 276.66Z" fill="#263238"/>
<path d="M397 410.32C397 410.32 371.27 381.12 363.28 363.47L369.28 360.89C364.91 361.61 360.43 359.73 357.04 356.89C353.65 354.05 351.16 350.28 348.71 346.58L356.66 345.24C349.36 343.154 343.143 338.338 339.3 331.79C348.68 333.33 357.16 338.48 364.15 344.92C369.703 350.255 374.745 356.097 379.21 362.37C381.457 365.383 383.415 368.601 385.06 371.98C389.43 380.91 397 399.59 397 410.32Z" fill="#455A64"/>
<path d="M452.82 301C452.794 301.105 452.754 301.206 452.7 301.3L452.31 302.15L450.75 305.39C449.37 308.2 447.42 312.27 445.06 317.33C440.32 327.45 434.06 341.58 427.94 357.47C421.82 373.36 416.94 388.02 413.6 398.69C411.94 404.03 410.6 408.36 409.77 411.36C409.34 412.82 408.99 413.98 408.77 414.81C408.65 415.17 408.56 415.47 408.49 415.7C408.461 415.804 408.421 415.905 408.37 416C408.376 415.894 408.397 415.79 408.43 415.69C408.49 415.45 408.56 415.15 408.66 414.78C408.88 413.94 409.18 412.78 409.58 411.3C410.38 408.3 411.58 403.93 413.22 398.57C416.43 387.87 421.27 373.18 427.42 357.26C433.57 341.34 439.87 327.26 444.7 317.16C447.12 312.16 449.12 308.06 450.56 305.29L452.22 302.1C452.41 301.76 452.55 301.49 452.67 301.27C452.71 301.175 452.76 301.084 452.82 301Z" fill="#263238"/>
<path d="M399.2 422.83C399.134 422.656 399.09 422.475 399.07 422.29L398.82 420.74C398.62 419.4 398.28 417.45 397.82 415.07C397.36 412.69 396.69 409.86 395.82 406.75C394.95 403.64 393.88 400.29 392.58 396.81C391.28 393.33 389.83 390.1 388.44 387.2C387.05 384.3 385.65 381.76 384.44 379.66C383.23 377.56 382.19 375.88 381.44 374.73L380.61 373.4C380.42 373.09 380.33 372.93 380.35 372.91C380.484 373.039 380.601 373.183 380.7 373.34L381.63 374.61C382.43 375.71 383.51 377.37 384.78 379.45C386.05 381.53 387.47 384.08 388.93 386.97C390.39 389.86 391.8 393.12 393.13 396.6C394.46 400.08 395.5 403.49 396.34 406.6C397.18 409.71 397.79 412.6 398.2 414.98C398.61 417.36 398.9 419.34 399.03 420.7C399.09 421.33 399.14 421.84 399.18 422.27C399.216 422.454 399.223 422.643 399.2 422.83Z" fill="#263238"/>
<path d="M433.16 415.96H376.84V427.45H433.16V415.96Z" fill="#1C469A"/>
<path d="M382.2 427.45L388.3 466.09H422.33L428.01 427.45H382.2Z" fill="#1C469A"/>
<path d="M429.71 427.45C429.71 427.61 419.05 427.74 405.91 427.74C392.77 427.74 382.11 427.61 382.11 427.45C382.11 427.29 392.77 427.16 405.91 427.16C419.05 427.16 429.71 427.29 429.71 427.45Z" fill="#263238"/>
<path d="M138.49 442.25V466L187.49 465.77C187.14 460.95 160.27 451.32 160.27 451.32L160.8 442.21L138.49 442.25Z" fill="#455A64"/>
<g opacity="0.6">
<path d="M146.41 449.21C145.938 449.376 145.542 449.708 145.296 450.144C145.049 450.579 144.969 451.09 145.07 451.58C145.191 452.061 145.495 452.476 145.917 452.738C146.338 452.999 146.845 453.086 147.33 452.98C147.832 452.804 148.253 452.451 148.512 451.987C148.772 451.523 148.853 450.98 148.74 450.46C148.557 449.975 148.194 449.58 147.725 449.358C147.257 449.136 146.721 449.105 146.23 449.27" fill="white"/>
</g>
<path d="M138.49 466V462.2L185.24 462.74C185.24 462.74 187.68 464.18 187.45 465.74L138.49 466Z" fill="#263238"/>
<path d="M160.23 451.82C160.23 452.07 159.03 452.2 157.88 453.01C156.73 453.82 156.11 454.86 155.88 454.77C155.65 454.68 155.99 453.24 157.41 452.29C158.83 451.34 160.27 451.59 160.23 451.82Z" fill="#263238"/>
<path d="M166.64 454C166.7 454.24 165.64 454.67 164.88 455.73C164.12 456.79 163.88 457.89 163.64 457.89C163.4 457.89 163.23 456.49 164.24 455.19C165.25 453.89 166.63 453.79 166.64 454Z" fill="#263238"/>
<path d="M169.53 460.09C169.31 460.14 168.96 458.91 169.53 457.55C170.1 456.19 171.23 455.64 171.33 455.84C171.43 456.04 170.76 456.78 170.33 457.9C169.9 459.02 169.76 460.06 169.53 460.09Z" fill="#263238"/>
<path d="M159.75 445.05C159.65 445.28 158.56 444.95 157.22 445.05C155.88 445.15 154.83 445.62 154.7 445.41C154.57 445.2 155.57 444.3 157.16 444.19C158.75 444.08 159.86 444.86 159.75 445.05Z" fill="#263238"/>
<path d="M160 452.88C160.142 452.411 160.18 451.916 160.11 451.43C160.003 450.09 159.555 448.799 158.81 447.68C158.301 446.902 157.654 446.224 156.9 445.68C156.672 445.493 156.398 445.369 156.107 445.32C155.816 445.271 155.517 445.299 155.24 445.4C154.948 445.547 154.7 445.771 154.524 446.047C154.348 446.324 154.25 446.643 154.24 446.97C154.322 448.219 154.775 449.416 155.541 450.407C156.307 451.397 157.351 452.136 158.54 452.53C159.708 452.897 160.959 452.911 162.135 452.57C163.312 452.228 164.36 451.546 165.15 450.61C165.54 450.184 165.839 449.684 166.03 449.14C166.136 448.815 166.136 448.465 166.03 448.14C165.975 447.983 165.887 447.84 165.771 447.721C165.656 447.602 165.515 447.509 165.36 447.45C164.853 447.306 164.31 447.36 163.84 447.6C162.282 448.374 160.957 449.547 160 451C159.695 451.377 159.465 451.808 159.32 452.27C160.338 450.871 161.602 449.668 163.05 448.72C163.71 448.35 164.57 447.83 165.26 448.06C165.56 448.18 165.68 448.53 165.54 448.95C165.364 449.399 165.102 449.81 164.77 450.16C164.054 450.986 163.113 451.586 162.062 451.886C161.01 452.186 159.894 452.173 158.85 451.85C157.808 451.5 156.888 450.857 156.2 449.999C155.512 449.141 155.085 448.104 154.97 447.01C154.973 446.808 155.028 446.609 155.129 446.434C155.231 446.259 155.376 446.113 155.55 446.01C155.735 445.949 155.932 445.937 156.122 445.973C156.313 446.01 156.491 446.095 156.64 446.22C157.35 446.694 157.966 447.294 158.46 447.99C159.198 449.024 159.688 450.215 159.89 451.47C160 452.36 160 452.88 160 452.88Z" fill="#263238"/>
<path d="M115.75 443.46V451.14L115.19 464.95L96.84 465.39L96.1801 451.14L96.7201 442.46L115.75 443.46Z" fill="#455A64"/>
<path d="M106.12 463.91C106 463.91 106.27 459.69 106.71 454.48C107.15 449.27 107.59 445.03 107.71 445.02C107.83 445.01 107.56 449.24 107.12 454.46C106.68 459.68 106.23 463.91 106.12 463.91Z" fill="#263238"/>
<path d="M115.27 462.65L96.7201 462.86V465.39L115.28 465.37L115.27 462.65Z" fill="#263238"/>
<path d="M96.77 454.71C96.77 454.71 96.9 454.43 97.24 453.98C98.4738 452.425 100.047 451.173 101.84 450.32C103.721 449.421 105.838 449.138 107.889 449.509C109.941 449.881 111.823 450.889 113.27 452.39C113.817 452.986 114.272 453.66 114.62 454.39C114.764 454.64 114.863 454.915 114.91 455.2C114.34 454.315 113.698 453.479 112.99 452.7C111.143 450.919 108.676 449.926 106.11 449.93C103.541 449.998 101.072 450.94 99.11 452.6C97.59 453.79 96.84 454.78 96.77 454.71Z" fill="#263238"/>
<path d="M157.07 264L154.92 260.65L86.3401 263.88C86.3401 263.88 85.0001 285.14 86.0001 293C86.3001 295.5 87.7201 305.2 87.7201 305.2L89.4101 380.36C90.0501 386.36 91.6701 449.05 91.6701 449.05H118.85L124.4 348.49C124.98 337.3 124.56 320.34 125.12 307.96L134.46 345.89L141.46 369.23C141.46 369.23 139.96 380.81 138.31 394.59C136.01 413.9 136.09 448.19 136.09 448.19L164 448.64C164 448.64 167.87 413.02 170.9 392.22L173.51 367.39C173.51 363.24 171.7 353.09 171.38 351.39L157.07 264Z" fill="#263238"/>
<path d="M131.19 310.17C130.761 310.068 130.343 309.928 129.94 309.75C129.453 309.572 128.975 309.369 128.51 309.14C127.97 308.87 127.33 308.6 126.67 308.2C126.01 307.8 125.28 307.41 124.54 306.89C123.8 306.37 123.03 305.81 122.23 305.19C120.533 303.794 118.976 302.237 117.58 300.54C116.213 298.812 115.014 296.957 114 295C113.57 294.08 113.12 293.23 112.82 292.38C112.494 291.614 112.213 290.829 111.98 290.03C111.769 289.373 111.592 288.705 111.45 288.03C111.32 287.53 111.223 287.022 111.16 286.51C111.068 286.076 111.021 285.634 111.02 285.19C111.13 285.19 111.36 287.05 112.32 289.92C112.577 290.701 112.874 291.469 113.21 292.22C113.53 293.05 113.98 293.89 114.42 294.78C115.452 296.682 116.65 298.489 118 300.18C119.379 301.847 120.905 303.386 122.56 304.78C123.34 305.41 124.07 306.01 124.81 306.5C125.55 306.99 126.24 307.45 126.88 307.85C129.46 309.43 131.23 310.07 131.19 310.17Z" fill="#455A64"/>
<path d="M157.68 280.3C156.902 280.472 156.097 280.496 155.31 280.37C153.389 280.169 151.532 279.566 149.86 278.6C148.183 277.641 146.731 276.336 145.6 274.77C145.102 274.149 144.726 273.44 144.49 272.68C144.57 272.63 144.99 273.43 145.89 274.55C147.061 276.004 148.492 277.228 150.11 278.16C151.735 279.089 153.513 279.719 155.36 280.02C156.77 280.24 157.68 280.22 157.68 280.3Z" fill="#455A64"/>
<path d="M214.76 169.57C215.627 167.544 216.606 165.568 217.69 163.65C218.44 162.65 221.8 158.81 221.8 158.81C221.8 158.81 228.55 155.69 229.65 156C230.303 156.182 230.931 156.444 231.52 156.78L240.95 150.18C240.95 150.18 243.16 149.02 244.02 150.34C244.88 151.66 243.69 152.65 243.19 153.26C242.69 153.87 235.85 159.73 235.85 159.73L235.6 160.2C235.6 160.2 238.15 160.98 238.15 162.37C238.076 163.401 237.765 164.4 237.24 165.29C237.62 165.599 237.897 166.015 238.037 166.484C238.176 166.954 238.17 167.454 238.02 167.92L237.52 169.61C237.954 169.909 238.302 170.316 238.528 170.792C238.755 171.268 238.852 171.795 238.81 172.32C238.57 174.02 234.53 176.93 234.53 176.93C234.53 176.93 227.19 180.2 225.67 180.35C224.15 180.5 220.67 181.35 220.67 181.35L214.76 169.57Z" fill="#FFBE9D"/>
<path d="M233.55 155.35C233.039 155.862 232.473 156.315 231.86 156.7C230.453 157.756 228.925 158.642 227.31 159.34C225.639 159.782 224.01 160.368 222.44 161.09C221.841 161.46 221.292 161.907 220.81 162.42C220.75 162.42 221.09 161.55 222.25 160.78C223.41 160.01 225.25 159.53 227.13 158.87C228.704 158.169 230.219 157.343 231.66 156.4C232.243 155.972 232.878 155.619 233.55 155.35Z" fill="#EB996E"/>
<path d="M235.79 159.9C235.85 159.9 235.79 160.17 235.52 160.41C235.19 160.698 234.819 160.938 234.42 161.12C233.49 161.53 232.73 161.74 232.67 161.63C232.61 161.52 233.31 161.06 234.2 160.63C234.64 160.43 235.04 160.24 235.31 160.1C235.58 159.96 235.73 159.86 235.79 159.9Z" fill="#EB996E"/>
<path d="M237.29 165C237.39 165.09 237.08 165.59 236.54 166C236 166.41 235.45 166.66 235.38 166.54C235.31 166.42 235.7 166.03 236.21 165.61C236.72 165.19 237.19 164.94 237.29 165Z" fill="#EB996E"/>
<path d="M237.8 169.28C237.93 169.28 237.74 170.05 237.05 170.6C236.36 171.15 235.63 171.2 235.61 171.07C235.59 170.94 236.16 170.68 236.73 170.21C237.3 169.74 237.67 169.22 237.8 169.28Z" fill="#EB996E"/>
<path d="M215.09 168.56L202.46 176.72L207.47 192.98L223.53 179.61L222.56 172.35L215.09 168.56Z" fill="#FFBE9D"/>
<path d="M109.66 103.77L109.12 147.77C109.02 155.24 110.42 166.25 122.25 165.86C132.48 164.74 135.2 155.05 135.25 148.07C135.25 144.76 135.32 142 135.35 141.66C135.35 141.66 146.56 140.75 147.5 129.66C147.96 124.31 148 113.22 147.93 103.18C147.892 97.984 145.899 92.9928 142.349 89.1984C138.8 85.4039 133.952 83.0841 128.77 82.7L127.7 82.62C116.12 82.45 109.51 92.19 109.66 103.77Z" fill="#FFBE9D"/>
<path d="M135.38 141.63C130.265 141.243 125.368 139.396 121.27 136.31C121.27 136.31 124.19 144.66 135.27 144.47L135.38 141.63Z" fill="#EB996E"/>
<path d="M129 107.7C128.78 107.93 127.51 106.9 125.65 106.85C123.79 106.8 122.41 107.71 122.22 107.47C122.03 107.23 122.35 106.96 122.95 106.53C123.766 105.988 124.731 105.715 125.71 105.75C126.683 105.78 127.618 106.132 128.37 106.75C129 107.18 129.14 107.61 129 107.7Z" fill="#263238"/>
<path d="M129 111.54C128.974 111.93 128.798 112.295 128.509 112.558C128.22 112.821 127.841 112.961 127.45 112.95C127.258 112.951 127.067 112.914 126.889 112.841C126.711 112.767 126.55 112.658 126.415 112.521C126.279 112.384 126.173 112.222 126.102 112.043C126.031 111.864 125.996 111.673 126 111.48C126.026 111.091 126.202 110.727 126.491 110.466C126.781 110.205 127.16 110.066 127.55 110.08C127.742 110.077 127.933 110.113 128.11 110.186C128.288 110.258 128.45 110.366 128.585 110.502C128.72 110.638 128.827 110.801 128.898 110.979C128.969 111.157 129.004 111.348 129 111.54Z" fill="#263238"/>
<path d="M133.68 120.61C134.596 120.388 135.538 120.288 136.48 120.31C136.92 120.31 137.34 120.24 137.48 119.95C137.553 119.504 137.486 119.047 137.29 118.64C136.95 117.56 136.61 116.42 136.24 115.23C134.8 110.39 133.79 106.42 133.99 106.36C134.19 106.3 135.51 110.19 136.99 115.03C137.343 116.217 137.677 117.357 137.99 118.45C138.225 118.994 138.261 119.603 138.09 120.17C138.016 120.319 137.909 120.45 137.777 120.552C137.646 120.654 137.493 120.725 137.33 120.76C137.081 120.788 136.829 120.788 136.58 120.76C135.611 120.828 134.637 120.777 133.68 120.61Z" fill="#263238"/>
<path d="M128.25 100.73C128.07 101.14 126.58 100.83 124.8 100.93C123.02 101.03 121.56 101.41 121.36 101.01C121.27 100.82 121.54 100.45 122.15 100.08C122.946 99.6381 123.834 99.3881 124.744 99.3499C125.654 99.3117 126.56 99.4864 127.39 99.86C128 100.18 128.32 100.54 128.25 100.73Z" fill="#263238"/>
<path d="M145.86 104.17C145.66 104.5 144.22 104.17 142.46 104.08C140.7 103.99 139.25 104.25 139.07 103.9C138.99 103.73 139.28 103.43 139.89 103.16C140.712 102.833 141.596 102.689 142.48 102.74C143.375 102.766 144.254 102.981 145.06 103.37C145.66 103.69 145.94 104 145.86 104.17Z" fill="#263238"/>
<path d="M110 112C109.82 111.9 102.55 109.19 102.24 116.78C101.93 124.37 109.62 123.12 109.64 122.9C109.66 122.68 110 112 110 112Z" fill="#FFBE9D"/>
<path d="M107.41 120C107.41 120 107.27 120.09 107.04 120.18C106.719 120.308 106.361 120.308 106.04 120.18C105.563 119.848 105.184 119.395 104.939 118.868C104.695 118.341 104.595 117.758 104.65 117.18C104.658 116.528 104.812 115.885 105.1 115.3C105.173 115.065 105.303 114.851 105.477 114.677C105.651 114.502 105.865 114.373 106.1 114.3C106.254 114.266 106.414 114.286 106.555 114.357C106.695 114.428 106.807 114.546 106.87 114.69C106.96 114.91 106.87 115.06 106.95 115.07C107.03 115.08 107.12 114.95 107.07 114.64C107.032 114.451 106.934 114.279 106.79 114.15C106.588 113.986 106.33 113.907 106.07 113.93C105.755 113.976 105.457 114.104 105.206 114.3C104.956 114.497 104.76 114.755 104.64 115.05C104.287 115.691 104.098 116.409 104.09 117.14C104.09 118.68 104.8 120.14 105.88 120.5C106.082 120.568 106.296 120.59 106.507 120.564C106.718 120.538 106.921 120.465 107.1 120.35C107.39 120.15 107.43 120 107.41 120Z" fill="#EB996E"/>
<path d="M131.89 125.86C131.97 125.67 130.48 125.22 129.44 123.86C129.003 123.243 128.65 122.57 128.39 121.86C128.17 121.31 128 120.96 127.92 120.98C127.84 121 127.86 121.38 127.98 121.98C128.15 122.783 128.491 123.541 128.98 124.2C129.478 124.865 130.149 125.381 130.92 125.69C131.48 125.91 131.87 125.93 131.89 125.86Z" fill="#263238"/>
<path d="M145.94 108.4C145.72 108.63 144.44 107.6 142.59 107.55C140.74 107.5 139.35 108.41 139.15 108.17C138.95 107.93 139.29 107.65 139.89 107.23C140.705 106.687 141.671 106.414 142.65 106.45C143.622 106.484 144.556 106.835 145.31 107.45C145.87 107.88 146.05 108.3 145.94 108.4Z" fill="#263238"/>
<path d="M145.64 112.08C145.614 112.471 145.437 112.836 145.145 113.098C144.854 113.359 144.471 113.496 144.08 113.48C143.889 113.481 143.699 113.444 143.523 113.371C143.346 113.298 143.186 113.19 143.052 113.054C142.917 112.918 142.812 112.756 142.741 112.579C142.67 112.401 142.636 112.211 142.64 112.02C142.663 111.63 142.839 111.265 143.129 111.003C143.419 110.741 143.8 110.604 144.19 110.62C144.382 110.617 144.573 110.653 144.751 110.726C144.928 110.798 145.09 110.906 145.225 111.042C145.36 111.178 145.467 111.341 145.538 111.519C145.609 111.697 145.644 111.888 145.64 112.08Z" fill="#263238"/>
<path d="M155.68 88.47C154.924 87.2469 153.754 86.3358 152.383 85.9026C151.012 85.4695 149.531 85.5431 148.21 86.11C148.562 84.3502 148.326 82.5236 147.54 80.9104C146.754 79.2972 145.46 77.9865 143.857 77.1794C142.254 76.3723 140.431 76.1133 138.666 76.4422C136.902 76.771 135.295 77.6696 134.09 79C133.995 78.5288 133.8 78.0838 133.517 77.6954C133.233 77.307 132.87 76.9845 132.45 76.75C131.615 76.2817 130.686 76.005 129.73 75.94C127.464 75.6845 125.171 76.0296 123.08 76.9405C120.99 77.8515 119.176 79.2963 117.82 81.13C115.617 80.8712 113.383 81.1326 111.299 81.8933C109.215 82.654 107.339 83.8927 105.82 85.51C102.25 89.46 101.58 98.62 105.49 106.51L106.41 111.51C107.502 111.374 108.605 111.645 109.51 112.27C110.51 113.19 110.99 114.93 112.7 114.27C113.57 113.93 114.36 112.11 114.65 111.27C116.572 105.384 117.203 99.1522 116.5 93C117.718 91.7037 119.175 90.6546 120.79 89.91L120.66 90.03C123.75 88.95 127.25 87.89 130.18 89.35C132.46 90.47 133.8 92.84 135.5 94.72C137.073 96.4601 138.981 97.8639 141.11 98.8469C143.24 99.83 145.546 100.372 147.89 100.44C148.05 103.56 147.79 107.96 147.95 111.08L150.57 106.08C150.78 105.72 150.96 105.35 151.13 104.98L151.19 104.87C151.773 104.231 152.324 103.564 152.84 102.87C153.614 101.96 154.124 100.855 154.314 99.6758C154.505 98.4964 154.368 97.2874 153.92 96.18C155.098 95.3267 155.926 94.0743 156.25 92.656C156.574 91.2377 156.371 89.7501 155.68 88.47Z" fill="#263238"/>
<path d="M152.11 103.09L152.1 103.08L152.11 103.09Z" fill="#263238"/>
<path d="M151.14 88.58C151.14 88.58 151.14 88.64 151.2 88.75C151.241 88.9102 151.265 89.0745 151.27 89.24C151.291 89.8626 151.139 90.4789 150.83 91.02C150.612 91.4039 150.324 91.7432 149.98 92.02C149.575 92.3319 149.096 92.535 148.59 92.61C148.005 92.703 147.407 92.6422 146.852 92.4335C146.298 92.2249 145.808 91.8756 145.43 91.42L145.62 91.26C145.985 91.668 146.175 92.203 146.15 92.75C146.129 93.4737 145.824 94.16 145.3 94.66C144.801 95.0999 144.173 95.3666 143.51 95.42C142.402 95.5006 141.3 95.1969 140.39 94.56C139.784 94.1524 139.224 93.6796 138.72 93.15C138.525 92.9672 138.347 92.7663 138.19 92.55C138.404 92.7103 138.605 92.8875 138.79 93.08C139.311 93.5748 139.877 94.0201 140.48 94.41C141.364 95.0003 142.421 95.2751 143.48 95.19C144.092 95.1373 144.671 94.8883 145.13 94.48C145.605 94.0235 145.882 93.3985 145.9 92.74C145.922 92.2603 145.757 91.7909 145.44 91.43L145.62 91.26C145.972 91.6843 146.428 92.0111 146.942 92.209C147.457 92.4068 148.014 92.4691 148.56 92.39C148.998 92.3214 149.415 92.1567 149.782 91.9077C150.148 91.6587 150.455 91.3316 150.68 90.95C150.995 90.4413 151.167 89.8578 151.18 89.26C151.18 88.82 151.12 88.59 151.14 88.58Z" fill="#455A64"/>
<path d="M141.64 80.26L141.81 80.34C141.958 80.4201 142.099 80.5138 142.23 80.62C142.729 81.013 143.121 81.5254 143.37 82.11C143.556 82.551 143.63 83.0313 143.584 83.5078C143.539 83.9843 143.376 84.4421 143.11 84.84C142.801 85.3429 142.304 85.7025 141.73 85.84C141.427 85.9078 141.114 85.9126 140.81 85.8541C140.505 85.7956 140.216 85.6751 139.96 85.5C139.801 85.3807 139.659 85.2393 139.54 85.08L139.76 84.96C139.867 85.2341 139.917 85.5272 139.907 85.8212C139.896 86.1153 139.826 86.4041 139.7 86.67C139.473 87.1612 139.085 87.56 138.6 87.8C138.194 87.9868 137.752 88.0835 137.305 88.0835C136.858 88.0835 136.416 87.9868 136.01 87.8C135.481 87.5688 135.007 87.2279 134.62 86.8C134.47 86.6476 134.345 86.472 134.25 86.28C134.25 86.28 134.4 86.45 134.69 86.74C135.08 87.165 135.553 87.5054 136.08 87.74C136.458 87.9154 136.869 88.0062 137.285 88.0062C137.701 88.0062 138.112 87.9154 138.49 87.74C138.93 87.5344 139.284 87.1804 139.49 86.74C139.602 86.5072 139.664 86.2535 139.673 85.9953C139.682 85.737 139.636 85.4798 139.54 85.24L139.14 84.31L139.75 85.12C139.855 85.2571 139.98 85.3783 140.12 85.48C140.347 85.6353 140.604 85.7421 140.874 85.7937C141.144 85.8453 141.422 85.8406 141.69 85.78C142.197 85.6712 142.641 85.37 142.93 84.94C143.181 84.5721 143.339 84.1485 143.389 83.7059C143.44 83.2633 143.382 82.8151 143.22 82.4C143.001 81.8412 142.659 81.3388 142.22 80.93C141.84 80.41 141.63 80.28 141.64 80.26Z" fill="#455A64"/>
<path d="M79.1601 172.1C79.1601 172.1 71.0001 218.56 71.3801 222.9C71.7601 227.24 73.9501 234.15 78.8801 235.34C82.0018 236.035 85.2383 236.035 88.3601 235.34L82.4301 178.28L79.1601 172.1Z" fill="#1C469A"/>
<path d="M156.69 243.66L155.19 222.55L155.63 194.15L148.63 152.07L138.96 150.07L137.68 145.07C137.68 145.07 129.79 139.24 116.77 139.07C112.77 139.02 107.1 140.6 103.94 143.07L103.11 148.18C103.11 148.18 93.32 155.18 91.11 157.18C82.11 165.74 80.17 169.25 79.11 172.18C78.05 175.11 85.39 242.34 85.39 242.34L84.39 254.46L83 262.47C82.3 265.47 83.71 269.93 86.82 270.07H156.82C159.92 270.14 157.29 246.77 156.69 243.66Z" fill="#1C469A"/>
<path d="M205 171.89L188.52 182.06C185.52 179.39 184.52 182.58 184.52 182.58C184.52 182.58 168.91 170.73 162.44 164.27C155.21 157.05 150.31 152.69 148.08 152.52C147.45 152.47 137.21 154.17 137.21 154.17L134.21 164.5C131.21 174.83 144.21 192.59 144.21 192.59L160.58 200.9C162.18 202.35 170.68 207.47 179.33 210.9C181.639 211.799 184.15 212.048 186.59 211.619C189.03 211.191 191.306 210.102 193.17 208.47L217.45 187.33C215.171 180.921 210.781 175.476 205 171.89Z" fill="#1C469A"/>
<path d="M139 150.09L138.64 150.01L137.64 149.74C136.75 149.52 135.47 149.21 133.86 148.9C129.668 148.128 125.434 147.607 121.18 147.34C116.929 147.029 112.661 147.029 108.41 147.34C106.78 147.48 105.47 147.68 104.57 147.84L103.57 148.05C103.447 148.061 103.323 148.061 103.2 148.05C103.312 148 103.43 147.963 103.55 147.94L104.55 147.68C105.817 147.402 107.099 147.202 108.39 147.08C112.649 146.684 116.934 146.641 121.2 146.95C125.466 147.211 129.709 147.762 133.9 148.6C135.51 148.94 136.79 149.28 137.67 149.54L138.67 149.86C138.79 149.922 138.901 149.999 139 150.09Z" fill="#263238"/>
<g opacity="0.3">
<path d="M103.34 148.08C114.09 149.98 124.99 148.08 136.34 149.45C125.34 147.17 113.91 146.09 103.34 148.08Z" fill="black"/>
</g>
<g opacity="0.3">
<path d="M84.47 235.43C78.47 221.26 79.14 205.25 79.96 189.87L84.47 235.43Z" fill="black"/>
</g>
<path d="M79.8601 182.15C79.8601 182.15 79.8601 182.21 79.8601 182.32C79.8601 182.43 79.8601 182.6 79.8601 182.8C79.9001 183.247 79.9601 183.867 80.0401 184.66C80.1801 186.3 80.3801 188.66 80.6301 191.52C81.1101 197.3 81.7801 205.3 82.6301 214.12C83.4801 222.94 84.3001 230.93 85.0001 236.7C85.3301 239.58 85.6201 241.92 85.8201 243.53C85.9201 244.32 85.9901 244.94 86.0501 245.39V245.87C86.0501 245.98 86.0501 246.04 86.0501 246.04V245.87C86.0501 245.75 86.0501 245.59 85.9701 245.39C85.9001 244.95 85.8001 244.33 85.6801 243.54C85.4401 241.93 85.1201 239.6 84.7601 236.72C84.0001 231 83.1701 223 82.3601 214.14C81.5501 205.28 80.9201 197.32 80.4901 191.53C80.2901 188.65 80.1201 186.31 80.0001 184.67L79.8801 182.81V182.32L79.8601 182.15Z" fill="#263238"/>
<path d="M125.68 174.63C125.53 174.645 125.38 174.645 125.23 174.63H124C122.89 174.63 121.3 174.63 119.33 174.69C115.4 174.78 109.96 175.07 104 175.77C98.0401 176.47 92.6801 177.48 88.8301 178.32C86.9101 178.74 85.3501 179.09 84.2801 179.32L83.0501 179.61C82.9056 179.648 82.7586 179.674 82.6101 179.69C82.7452 179.63 82.8859 179.583 83.0301 179.55L84.2501 179.2C85.3201 178.91 86.8601 178.51 88.7801 178.07C93.7904 176.925 98.8574 176.044 103.96 175.43C109.062 174.821 114.193 174.487 119.33 174.43C121.33 174.43 122.9 174.43 124 174.43L125.27 174.48L125.68 174.63Z" fill="#263238"/>
<path d="M99.2901 189.67C99.2101 189.67 99.3701 183.24 99.6501 175.3C99.9301 167.36 100.22 160.94 100.3 160.95C100.38 160.96 100.23 167.38 99.9501 175.32C99.6701 183.26 99.3801 189.67 99.2901 189.67Z" fill="#263238"/>
<path d="M145.94 191.07C145.815 190.962 145.701 190.841 145.6 190.71L144.66 189.66L141.19 185.78C139.464 183.892 137.942 181.827 136.65 179.62C135.933 178.31 135.363 176.925 134.95 175.49C133.783 170.924 133.943 166.119 135.41 161.64C135.896 160.323 136.57 159.084 137.41 157.96C138.153 156.963 139.024 156.069 140 155.3C141.478 154.129 143.206 153.315 145.05 152.92C145.725 152.763 146.417 152.692 147.11 152.71C146.438 152.782 145.771 152.889 145.11 153.03C143.312 153.471 141.633 154.3 140.19 155.46C139.224 156.224 138.364 157.111 137.63 158.1C136.824 159.211 136.178 160.429 135.71 161.72C134.295 166.154 134.146 170.896 135.28 175.41C135.682 176.827 136.238 178.195 136.94 179.49C138.213 181.687 139.704 183.751 141.39 185.65L144.77 189.58L145.66 190.68C145.766 190.8 145.86 190.931 145.94 191.07Z" fill="#263238"/>
<g opacity="0.3">
<path d="M83.6901 179.72C88.0325 179.493 92.3497 178.918 96.6001 178C96.0759 179.881 95.8332 181.828 95.8801 183.78C97.2328 182.262 98.2152 180.452 98.7501 178.49C98.9055 179.555 99.2744 180.578 99.8346 181.497C100.395 182.417 101.135 183.214 102.01 183.84C102.441 181.907 102.539 179.916 102.3 177.95C108.72 177.177 115.1 176.12 121.44 174.78C108.609 174.472 95.8038 176.066 83.4401 179.51" fill="black"/>
</g>
<path d="M217.12 187.87C216.94 188.073 216.743 188.261 216.53 188.43L214.78 190L208.27 195.55L198.59 203.73C196.77 205.27 194.93 206.96 192.91 208.62C191.885 209.478 190.772 210.225 189.59 210.85C188.99 211.181 188.373 211.478 187.74 211.74C187.084 212.036 186.379 212.209 185.66 212.25C185.498 212.255 185.336 212.221 185.19 212.15H185.39C184.019 212.422 182.603 212.381 181.25 212.03C179.959 211.74 178.692 211.353 177.46 210.87C175.151 209.947 172.898 208.892 170.71 207.71C166.53 205.46 162.92 203.19 159.93 201.23C156.94 199.27 154.56 197.61 152.93 196.45L151.06 195.1C150.842 194.948 150.635 194.781 150.44 194.6C150.678 194.717 150.906 194.854 151.12 195.01L153.04 196.29C154.7 197.4 157.1 199.01 160.11 200.93C163.12 202.85 166.75 205.08 170.92 207.29C173.094 208.457 175.334 209.496 177.63 210.4C178.841 210.868 180.084 211.249 181.35 211.54C182.622 211.869 183.951 211.91 185.24 211.66H185.44C185.513 211.665 185.587 211.665 185.66 211.66C186.311 211.619 186.949 211.456 187.54 211.18C188.159 210.934 188.76 210.647 189.34 210.32C190.493 209.713 191.579 208.985 192.58 208.15C194.58 206.52 196.44 204.83 198.28 203.29L208.03 195.19L214.64 189.77L216.45 188.31C216.661 188.146 216.885 187.998 217.12 187.87Z" fill="#263238"/>
</svg>
